<svg width="24" height="24" fill="none" xmlns="http://www.w3.org/2000/svg"><g clip-path="url(#a)"><path d="M14.286 15.0998a1.3956 1.3956 0 0 0 .0953-.0869l8.0516-8.0515c1.4895-1.4896 1.4895-3.9047 0-5.3942-1.4896-1.4896-3.9047-1.4896-5.3943 0L8.9871 9.6187a1.4112 1.4112 0 0 0-.1625.195 1.4053 1.4053 0 0 0-.249.7986v3.7081a1.1045 1.1045 0 0 0 .9885 1.0981c.038.0039.0765.0059.1155.0059h3.7082a1.4057 1.4057 0 0 0 .7986-.249l-.0284-.0411.0284.0411a1.3656 1.3656 0 0 0 .0996-.0756Zm-4.1047-1.2811v-2.5824l2.5824 2.5824h-2.5824ZM21.2974 5.826l-7.1278 7.1278-3.1234-3.1234 7.1279-7.1278c.8624-.8625 2.2609-.8625 3.1233 0 .8625.8625.8625 2.2609 0 3.1234ZM6.7162 15.9715a.8029.8029 0 0 0-.8028-.8029H3.135c-1.4829 0-2.685 1.202-2.685 2.6849 0 1.483 1.2021 2.6851 2.685 2.6851h14.6807a.7029.7029 0 1 1 0 1.4057H11.04a.8029.8029 0 1 0 0 1.6057h6.7757c1.2749 0 2.3086-1.0335 2.3086-2.3086 0-1.275-1.0337-2.3085-2.3086-2.3085H3.135c-.596 0-1.0793-.4833-1.0793-1.0794 0-.596.4832-1.0792 1.0793-1.0792h2.7784a.8028.8028 0 0 0 .8028-.8028Z" fill="#353B45" stroke="#353B45" stroke-width=".1"/></g><defs><clipPath id="a"><path fill="#fff" d="M0 0h24v24H0z"/></clipPath></defs></svg>