<svg width="24" height="22" fill="none" xmlns="http://www.w3.org/2000/svg"><path d="m17.7737 21.0037-.0218-.014c-.501-.3221-.818-.7397-.9569-1.2334-.1353-.4807-.0884-.9855.0431-1.4706.2588-.9541.8936-1.9922 1.4764-2.9247l.0038-.006.0039-.0058c.1987-.2981.445-.7118.6678-1.1302-.1538.1209-.314.2514-.4782.3888-.5655.4732-1.1573 1.0093-1.676 1.4791v.0001l-.0002.0001c-.138.125-.2708.2453-.3965.3585l-.005.0045-.2732.2392c-1.3183 1.1555-2.6839 2.3526-3.9684 3.0597-.6913.3806-1.4013.6444-2.1023.664-.721.0202-1.3987-.2193-1.9937-.7793-.5735-.538-.8315-1.1914-.8315-1.9158 0-.7016.2411-1.4471.6102-2.2083.7057-1.4555 1.966-3.1352 3.3107-4.9272l.1651-.22c.1757-.2489.3795-.5321.6005-.8393l.0001-.0002c.6865-.9543 1.5396-2.1402 2.2365-3.2464.4622-.7336.8388-1.4064 1.0495-1.934.0878-.22.1388-.3953.1604-.5273-.1723.0347-.385.1036-.6398.2153-.3865.1693-.8359.4217-1.337.748-1.002.6524-2.1741 1.5758-3.4087 2.6487-2.4674 2.1444-5.1456 4.8517-7.1466 7.0881l-.009.01-.0093.0094c-.6547.6547-1.6342.6505-2.2843.1629l-.0273-.0205-.0241-.0241c-.6547-.6547-.6505-1.6341-.163-2.2842l.0159-.0211.018-.0192c.0724-.0773.157-.1679.2527-.2704v-.0001c1.0725-1.149 3.5543-3.808 6.301-6.2678C8.432 4.451 10.0178 3.16 11.507 2.2012c1.4677-.945 2.9232-1.6223 4.1376-1.6223.6091 0 1.0739.1367 1.4443.3404.356.1958.6035.4434.7791.619l.0187.0187c1.2889 1.3606.9559 3.172.0842 4.9905-.8186 1.708-2.2074 3.6275-3.6239 5.5855l-.3252.4498-.002.0028-.1057.1441c-.6343.8646-1.4056 1.9161-2.0575 2.887-.2893.4309-.5519.8412-.7668 1.2085.2189-.1592.4545-.3437.6997-.5452.6706-.5508 1.3803-1.1999 1.9773-1.7458.1296-.1186.254-.2323.3714-.3391l.0009-.0007c1.2336-1.1162 2.4492-2.2123 3.5854-2.934 1.1206-.7116 2.3077-1.1526 3.4239-.7061.6929.2771 1.3024.8492 1.4696 1.6234.2745.8523.117 1.7363-.2083 2.5882-.2785.7295-.6993 1.4835-1.1437 2.2341.2584-.2239.589-.3519.9161-.3831.4182-.0398.8817.0743 1.2335.4107.3446.272.5376.6896.5768 1.1015.0408.428-.0797.9032-.4343 1.2578l-.6188.3937c-.1832.1466-.414.3307-.6671.5138-.7067.5112-1.7312 1.1266-2.8406 1.1266-.5563 0-1.1027-.1397-1.6348-.4057l-.0231-.0116Z" fill="currentColor"/></svg>