<svg width="24" height="24" fill="none" xmlns="http://www.w3.org/2000/svg"><g clip-path="url(#a)"><path d="m20.3942 2.4694-6.4348 6.1423a.759.759 0 0 0-.2351.5319.7607.7607 0 0 0 .21.5423.7595.7595 0 0 0 1.0742.025l-.0346-.0361.0346.0361 6.5222-6.2258V7.742a.7595.7595 0 1 0 1.5193 0V1.7097a.7596.7596 0 0 0-.7597-.7596h-6.0322a.7598.7598 0 0 0 0 1.5193h4.1361Zm1.1364 17.987-6.5096-6.5096-.0006-.0006a.7598.7598 0 0 0-1.2874.5398.7594.7594 0 0 0 .2132.5344l.0006.0006 6.5096 6.5096h-4.1983a.76.76 0 0 0-.7597.7597.7596.7596 0 0 0 .7597.7597h6.0322a.76.76 0 0 0 .7597-.7597v-6.0322a.76.76 0 0 0-.7597-.7597.7596.7596 0 0 0-.7597.7597v4.1983ZM8.6248 14.301l-.0006.0006-6.1548 6.1548v-4.1983a.7598.7598 0 0 0-1.5194 0v6.0322a.7598.7598 0 0 0 .7597.7597h6.0322a.76.76 0 0 0 .7597-.7597.7597.7597 0 0 0-.7597-.7597H3.5435l6.1549-6.1548.0006-.0006a.7598.7598 0 0 0-1.0742-1.0742ZM2.4693 3.5436l6.1549 6.1548.0006.0006A.7597.7597 0 0 0 9.699 8.6248l-.0007-.0006-6.1548-6.1548H7.742a.7597.7597 0 0 0 0-1.5193H1.7097a.7597.7597 0 0 0-.7597.7596V7.742a.7597.7597 0 0 0 1.5193 0V3.5436Z" fill="#353B45" stroke="#353B45" stroke-width=".1"/></g><defs><clipPath id="a"><path fill="#fff" d="M0 0h24v24H0z"/></clipPath></defs></svg>