<svg width="24" height="24" fill="none" xmlns="http://www.w3.org/2000/svg"><g clip-path="url(#a)" fill="currentColor"><path d="M23.789 8.079c0-.9195-.3581-1.784-1.0083-2.4342l-3.8946-3.8945C18.2359 1.1 17.3715.742 16.452.742s-1.784.358-2.4342 1.0083L3.2813 12.4868c-1.3422 1.3422-1.3422 3.5261 0 4.8682l4.7012 4.7012a.6881.6881 0 0 0 .4868.2017h13.6312a.6885.6885 0 1 0 0-1.3769h-9.6876l10.3678-10.3679c.6502-.6502 1.0083-1.5146 1.0083-2.4341ZM10.4656 20.8809h-1.711L4.255 16.3814c-.8053-.8054-.8053-2.1157 0-2.921l3.3814-3.3814 6.8156 6.8156-3.9864 3.9863ZM21.8071 9.5394l-6.3815 6.3815-6.8155-6.8156 6.3814-6.3814c.8053-.8053 2.1157-.8052 2.921 0l3.8946 3.8946c.8053.8053.8053 2.1157 0 2.921Z"/><path fill-rule="evenodd" clip-rule="evenodd" d="M22.9222 5.5034c.6877.6877 1.0668 1.603 1.0668 2.5756 0 .9725-.3791 1.8878-1.0668 2.5755L12.8958 20.681h9.2047a.8885.8885 0 1 1 0 1.7769H8.4694a.8884.8884 0 0 1-.6283-.2602L3.14 17.4965c-1.4203-1.4203-1.4203-3.7308 0-5.1511L13.8765 1.6088C14.5642.9211 15.4795.542 16.452.542c.9725 0 1.8879.3791 2.5756 1.0668l3.8946 3.8946Zm-.1415 5.0097c.6502-.6502 1.0083-1.5146 1.0083-2.4341s-.3581-1.784-1.0083-2.4342l-3.8946-3.8945C18.2359 1.1 17.3715.742 16.452.742s-1.784.358-2.4342 1.0083L3.2813 12.4868c-1.3422 1.3422-1.3422 3.5261 0 4.8682l4.7012 4.7012a.6881.6881 0 0 0 .4868.2017h13.6312a.6885.6885 0 1 0 0-1.3769h-9.6876l10.3678-10.3679ZM10.3828 20.6809l3.7864-3.7864-6.5328-6.5327-3.24 3.24c-.7272.7272-.7272 1.9109 0 2.6381l4.441 4.441h1.5454Zm-1.6283.2h1.7111l3.9864-3.9863-6.8156-6.8156-3.3814 3.3814c-.8053.8053-.8053 2.1156 0 2.921l4.4995 4.4995Zm6.6712-5.2429 6.24-6.24c.7272-.7272.7272-1.9109 0-2.638l-3.8946-3.8947c-.7272-.7271-1.9109-.7272-2.6381 0l-6.24 6.24 6.5327 6.5327Zm-.0001.2829L8.6101 9.1053l6.3814-6.3814c.8053-.8053 2.1157-.8052 2.921 0l3.8946 3.8946c.8053.8053.8053 2.1157 0 2.921l-6.3815 6.3814Z"/><path d="M2.8457 22.1924a.6884.6884 0 0 0-.6885-.6884H.6885a.6884.6884 0 1 0 0 1.3769h1.4687a.6885.6885 0 0 0 .6885-.6885ZM.5126 18.2807a.7475.7475 0 0 0 0 1.0571l1.0571 1.0571a.7453.7453 0 0 0 .5286.2189.7475.7475 0 0 0 .5285-1.276l-1.057-1.0571a.7475.7475 0 0 0-1.0572 0Z"/></g><defs><clipPath id="a"><path fill="#fff" d="M0 0h24v24H0z"/></clipPath></defs></svg>