<svg width="24" height="24" fill="none" xmlns="http://www.w3.org/2000/svg"><path fill-rule="evenodd" clip-rule="evenodd" d="M2.1344 11.4634c0-4.8897 3.964-8.8536 8.8537-8.8536 4.8897 0 8.8536 3.9639 8.8536 8.8536 0 4.8898-3.9639 8.8537-8.8536 8.8537-4.8898 0-8.8537-3.9639-8.8537-8.8537ZM10.9881 1C5.2093 1 .5247 5.6846.5247 11.4634S5.2093 21.9268 10.988 21.9268s10.4634-4.6846 10.4634-10.4634S16.7669 1 10.9881 1Zm9.1545 18.4796a.805.805 0 0 0-1.1383 1.1383l2.1463 2.1464a.805.805 0 0 0 1.1383-1.1383l-2.1463-2.1464Z" fill="currentColor"/><path d="M14.9332 10.7373h-3.245v-3.245a.7914.7914 0 0 0-.7916-.7916.7914.7914 0 0 0-.7915.7915v3.2451H6.8599a.7914.7914 0 0 0-.7915.7915c0 .4373.3543.7916.7915.7916h3.2451v3.2452c0 .4372.3543.7915.7915.7915a.7914.7914 0 0 0 .7916-.7915v-3.2452h3.245a.7915.7915 0 0 0 .7916-.7916.7914.7914 0 0 0-.7915-.7915Z" fill="currentColor"/></svg>