<svg width="24" height="24" fill="none" xmlns="http://www.w3.org/2000/svg"><g clip-path="url(#a)"><path d="M9.7084 24.0002H1.554c-.7276 0-1.2116-.7522-.9101-1.4144l3.1041-6.8177c.2275-.4996.8152-.7224 1.3168-.4992l6.7601 3.0087c.5057.225.7324.8181.5057 1.3231l-1.7101 3.809a1 1 0 0 1-.9122.5905Z" fill="#F49F25"/><path d="m4.7352 16.357 7.839 3.3886a.7696.7696 0 0 0 .7692-.0932l.6589-.4997a.768.768 0 0 0-.9281-1.2235l-.302.2288-8.4192-3.6393.2737-1.0551 8.8365 3.8195a3.2425 3.2425 0 0 0 1.2892.2688 3.276 3.276 0 0 0 1.2085-.2326c.8125-.3224 1.4494-.9389 1.7943-1.7368l4.0202-8.6735c.168-.3894-.0109-.8416-.4002-1.0097-.389-.168-.8416.0108-1.0097.4002l-4.0201 8.6735c-.1818.4214-.52.7476-.9506.9181-.431.1706-.8999.1648-1.3217-.0175l-8.918-3.8547a1.724 1.724 0 0 1-.4695-.3016.795.795 0 0 0-.0414-.0381c-.505-.4857-.6838-1.2525-.3902-1.9325l4.0205-8.6739c.168-.3894-.0108-.8416-.4002-1.0097-.389-.168-.842.0109-1.0096.4002L2.8445 9.1376c-.4958 1.1461-.2793 2.4239.4517 3.3375l-.5952 2.2945a.7681.7681 0 0 0 .4389.8977l.1855.0803 1.4098.6094Z" fill="currentColor"/></g><defs><clipPath id="a"><path fill="#fff" d="M0 0h24v24H0z"/></clipPath></defs></svg>