<svg width="24" height="24" fill="none" xmlns="http://www.w3.org/2000/svg"><path d="M13.122 11.6464 12.7684 12l.3536.3536 8.2187 8.2187a.543.543 0 0 1 0 .7684.5398.5398 0 0 1-.3842.1593.5398.5398 0 0 1-.3842-.1593l-8.2187-8.2187L12 12.7684l-.3536.3536-8.2187 8.2187a.54.54 0 0 1-.3842.1593.54.54 0 0 1-.3842-.1593.543.543 0 0 1 0-.7684l8.2187-8.2187.3536-.3536-.3536-.3536-8.2187-8.2187a.5431.5431 0 0 1 0-.7684.5431.5431 0 0 1 .7684 0l8.2187 8.2187.3536.3536.3536-.3536 8.2187-8.2187a.543.543 0 0 1 .7684 0 .543.543 0 0 1 0 .7684l-8.2187 8.2187Z" fill="#353B45" stroke="#353B45"/></svg>