<svg width="24" height="24" fill="none" xmlns="http://www.w3.org/2000/svg"><g clip-path="url(#a)" fill="#353B45" stroke="#353B45" stroke-width=".2"><path d="M15.6861 14.4842h4.3231a.85.85 0 1 0 0-1.7h-6.375a.85.85 0 0 0-.85.85v6.375a.8503.8503 0 0 0 .85.85.8502.8502 0 0 0 .85-.85v-4.3231l7.7991 7.7991h-.0001l.0013.0012a.8501.8501 0 0 0 1.2019-1.2019l-.0012-.0012-7.7991-7.7991ZM7.9388 9.1408h-4.323a.85.85 0 0 0 0 1.7h6.375a.85.85 0 0 0 .8499-.85v-6.375a.85.85 0 1 0-1.7 0v4.323L1.7167.5149 1.7154.5136A.85.85 0 0 0 .5135 1.7155l.0013.0012 7.424 7.424Z"/><path d="M15.6861 14.4842h4.3231a.85.85 0 1 0 0-1.7h-6.375a.85.85 0 0 0-.85.85v6.375a.8503.8503 0 0 0 .85.85.8502.8502 0 0 0 .85-.85v-4.3231l7.7991 7.7991h-.0001l.0013.0012a.8501.8501 0 0 0 1.2019-1.2019l-.0012-.0012-7.7991-7.7991ZM7.9388 9.1408h-4.323a.85.85 0 0 0 0 1.7h6.375a.85.85 0 0 0 .8499-.85v-6.375a.85.85 0 1 0-1.7 0v4.323L1.7167.5149 1.7154.5136A.85.85 0 0 0 .5135 1.7155l.0013.0012 7.424 7.424Z"/></g><defs><clipPath id="a"><path fill="#fff" d="M0 0h24v24H0z"/></clipPath></defs></svg>