<svg width="24" height="24" fill="none" xmlns="http://www.w3.org/2000/svg"><path d="M23.25 9.375c0 1.0355-.8395 1.875-1.875 1.875H2.625C1.5895 11.25.75 10.4105.75 9.375c0-1.0355.8395-1.875 1.875-1.875h18.75c1.0355 0 1.875.8395 1.875 1.875ZM23.25 3.75C23.25 4.9926 22.2426 6 21 6H3C1.7574 6 .75 4.9926.75 3.75S1.7574 1.5 3 1.5h18c1.2426 0 2.25 1.0074 2.25 2.25ZM23.25 14.25c0 .8284-.6716 1.5-1.5 1.5H2.25c-.8284 0-1.5-.6716-1.5-1.5s.6716-1.5 1.5-1.5h19.5c.8284 0 1.5.6716 1.5 1.5ZM23.25 18.375c0 .6213-.5037 1.125-1.125 1.125H1.875c-.6213 0-1.125-.5037-1.125-1.125s.5037-1.125 1.125-1.125h20.25c.6213 0 1.125.5037 1.125 1.125ZM23.25 21.75a.75.75 0 0 1-.75.75h-21a.75.75 0 0 1 0-1.5h21a.75.75 0 0 1 .75.75Z" fill="#353B45"/></svg>