<svg width="24" height="24" fill="none" xmlns="http://www.w3.org/2000/svg"><path fill-rule="evenodd" clip-rule="evenodd" d="M7.4331.5C5.9145.5 4.6828 1.7317 4.6828 3.2503c0 1.5186 1.2317 2.7502 2.7503 2.7502h2.9076c.6215 0 1.1259.5045 1.1259 1.126 0 .6214-.5044 1.1258-1.1259 1.1258H7.4798a.8143.8143 0 0 0-.193.0231c-.5102-.4441-1.1509-.6736-1.8026-.667-.7909-.007-1.5622.333-2.106.9762l-.0007.0009c-.9692 1.1496-.7397 2.8099.2395 3.7892l5.39 5.39a2.8665 2.8665 0 0 0-1.9585.8401 2.8785 2.8785 0 0 0-.8409 2.0271c0 .729.2866 1.4728.841 2.0271a2.8658 2.8658 0 0 0 2.027.841h7.3737a.8122.8122 0 0 0 0-1.6244H9.0756c-.3303 0-.6453-.132-.8784-.3652-.2396-.2396-.3652-.5658-.3652-.8785 0-.3129.1248-.6381.3652-.8785a1.2419 1.2419 0 0 1 .8784-.3651h3.8522l-8.1621-8.1622c-.4683-.4683-.4969-1.1772-.1467-1.5931.2314-.2734.5436-.4042.8553-.4002l.011.0001.011-.0001c.2828-.004.564.1033.784.3239l4.6105 4.6105 4.7006-3.5252a1.1263 1.1263 0 0 1 1.4714.1043 16.698 16.698 0 0 1 4.0343 6.5272l.0013.0037.0639.1889a.8122.8122 0 0 0 1.5385-.5211l-.0627-.1852-.0005-.0016a18.3235 18.3235 0 0 0-4.4262-7.1605c-.967-.967-2.4996-1.0764-3.5946-.2552l-3.5735 2.68-2.1458-2.1458h1.4432c1.5187 0 2.7503-1.2316 2.7503-2.7503 0-1.5186-1.2316-2.7502-2.7503-2.7502H7.4331c-.6215 0-1.1259-.5044-1.1259-1.126 0-.6214.5044-1.1258 1.1259-1.1258h4.8457a.8122.8122 0 1 0 0-1.6244H7.4331Z" fill="#353B45"/></svg>