<svg width="24" height="22" fill="none" xmlns="http://www.w3.org/2000/svg"><path d="m16.9056 21.0366-.0604-.0389-.0325-.0211c-.1051-.0772-.3276-.2428-.3767-.2874-.4096-.3622-.7033-.8125-.8519-1.3405-.1647-.5854-.1214-1.1614-.0056-1.6626-.9645.8291-1.985 1.6506-2.9715 2.1938-.7013.3861-1.5024.7009-2.3505.7247-.9036.0253-1.7589-.284-2.4802-.9629-.7163-.6725-1.0496-1.515-1.0496-2.4212 0-.8427.2864-1.6742.654-2.4326.6923-1.4277 1.907-3.0459 3.1257-4.6696l.1739-.2317c.1688-.239.3607-.5057.5663-.7916l.0004-.0005c.5593-.7775 1.2209-1.6973 1.8012-2.5895-.7032.5119-1.4837 1.1438-2.3054 1.858-2.2518 1.9568-4.7052 4.4364-6.538 6.4849l-.0247.0275-.0262.0262c-.942.942-2.3478.9303-3.277.2334l-.0758-.0568-.067-.067c-.942-.942-.9303-2.3478-.2334-3.277l.0439-.0585.05-.0534c.0666-.071.1446-.1546.2331-.2494.9922-1.0631 3.3159-3.553 5.8908-5.859 1.4007-1.2542 2.9085-2.4842 4.3438-3.4083 1.3751-.8854 2.9114-1.6437 4.3123-1.6437.7058 0 1.2847.1607 1.7658.4253.4421.2432.7469.5485.9121.714l.0182.0183.0128.0128.0123.013c1.608 1.6973 1.0669 3.8797.2345 5.6164-.5819 1.214-1.4526 2.5266-2.3857 3.8454.2955-.2242.5893-.4319.8794-.6162 1.0853-.6893 2.5199-1.3116 3.9769-.7288.8314.3325 1.6453 1.0466 1.8898 2.0971.3243 1.0503.1086 2.0803-.2216 2.945a8.989 8.989 0 0 1-.2501.588c.3288.0909.6522.2572.935.518.5162.4238.7807 1.0353.8351 1.6068.0584.6134-.1118 1.3307-.6585 1.8774-.3353.2494-1.0936.8056-1.4442 1.0359-.6882.4808-1.7683 1.108-3.0052 1.108-.6687 0-1.3099-.1689-1.9113-.4696l-.0643-.0321Z" fill="currentColor"/></svg>