<svg width="24" height="24" fill="none" xmlns="http://www.w3.org/2000/svg"><path d="M8.9053 11.0053H3.6c-1.1579 0-2.1-.9422-2.1-2.1V3.6c0-1.1579.9421-2.1 2.1-2.1h5.3053c1.1578 0 2.1.9421 2.1 2.1v5.3053c0 1.1578-.9422 2.1-2.1 2.1ZM3.6 3.0473a.5534.5534 0 0 0-.5526.5527v5.3053c0 .3046.248.5526.5526.5526h5.3053a.5534.5534 0 0 0 .5526-.5526V3.6a.5534.5534 0 0 0-.5526-.5526H3.6ZM20.3999 11.0053h-5.3053c-1.1578 0-2.1-.9422-2.1-2.1V3.6c0-1.1579.9422-2.1 2.1-2.1h5.3053c1.1579 0 2.1.9421 2.1 2.1v5.3053c0 1.1578-.9421 2.1-2.1 2.1Zm-5.3053-7.958a.5534.5534 0 0 0-.5526.5527v5.3053c0 .3046.248.5526.5526.5526h5.3053a.5534.5534 0 0 0 .5526-.5526V3.6a.5534.5534 0 0 0-.5526-.5526h-5.3053ZM8.9053 22.5H3.6c-1.1579 0-2.1-.9421-2.1-2.1v-5.3052c0-1.1579.9421-2.1 2.1-2.1h5.3053c1.1578 0 2.1.9421 2.1 2.1V20.4c0 1.1579-.9422 2.1-2.1 2.1ZM3.6 14.5421a.5534.5534 0 0 0-.5526.5527V20.4c0 .3046.248.5526.5526.5526h5.3053a.5534.5534 0 0 0 .5526-.5526v-5.3052a.5534.5534 0 0 0-.5526-.5527H3.6ZM20.3999 22.5h-5.3053c-1.1578 0-2.1-.9421-2.1-2.1v-5.3052c0-1.1579.9422-2.1 2.1-2.1h5.3053c1.1579 0 2.1.9421 2.1 2.1V20.4c0 1.1579-.9421 2.1-2.1 2.1Zm-5.3053-7.9579a.5534.5534 0 0 0-.5526.5527V20.4c0 .3046.248.5526.5526.5526h5.3053a.5534.5534 0 0 0 .5526-.5526v-5.3052a.5534.5534 0 0 0-.5526-.5527h-5.3053Z" fill="#353B45"/></svg>