<svg width="24" height="22" fill="none" xmlns="http://www.w3.org/2000/svg"><path d="M18.2619 20.9853c-1.7258-1.1094-.4931-3.2051.7397-5.1776.4931-.7396 1.2328-2.0957 1.356-2.712-.7729.2208-2.4358 1.7272-3.6602 2.8364-.1426.1292-.2793.253-.4079.3687l-.27.2366c-2.8679 2.5129-5.711 5.0043-7.743 3.0919-1.9373-1.8163.407-4.9409 3.2947-8.7897l.1571-.2095c.1796-.2544.39-.5469.6197-.8661 1.6622-2.3105 4.3299-6.0188 3.5717-6.777h-.1233c-2.4655 0-9.4923 6.657-13.6836 11.3414-.4931.4931-1.2328.4931-1.726.1233-.493-.4931-.493-1.2328-.1232-1.7259.0758-.0808.164-.1753.2637-.2822C2.8623 9.942 11.5403.6448 15.7964.6448c1.1095 0 1.6026.493 1.9724.863 2.1427 2.2616-.6573 6.1327-3.7383 10.392l-.3298.4562-.1115.1521c-1.3565 1.8491-3.3469 4.5624-3.5868 5.6419.7865 0 2.8016-1.843 4.1791-3.1029.134-.1225.262-.2396.3822-.3488 2.5888-2.3423 4.931-4.438 6.7801-3.6983.6164.2465 1.1095.7396 1.2328 1.356.4931 1.4793-.4931 3.2052-1.6026 5.0543-.2847.3797-.5694.9785-.7979 1.459-.0683.1436-.1316.2767-.1883.3902.4931-.2466 1.2328-.863 1.8491-1.4793.3699-.4931 1.2328-.6164 1.7259-.1233.4931.3698.6164 1.2327.1233 1.7259-.0393-.0786-.2537.0931-.5916.3636-.7225.5785-2.0092 1.6088-3.3532 1.6088-.4932 0-.9863-.1233-1.4794-.3699Z" fill="currentColor"/></svg>