<svg width="24" height="22" fill="none" xmlns="http://www.w3.org/2000/svg"><path d="M14.9271 18.4456c-.7002.5687-1.4249 1.1016-2.1351 1.4927-.7057.3885-1.5476.7261-2.4612.7518-.9848.0276-1.9189-.3126-2.6964-1.0438-.7808-.7328-1.148-1.66-1.148-2.6479 0-.9057.3066-1.7755.6737-2.5327.6863-1.4155 1.8809-3.0068 3.0451-4.5575l.1757-.2341c.1658-.2347.3524-.4941.5514-.7707l.0001-.0002.0071-.0098c-2.1199 1.8552-4.4144 4.1776-6.137 6.1029l-.0317.0354-.0337.0337c-1.0703 1.0703-2.6664 1.0552-3.7201.2649l-.0975-.0731-.0862-.0862c-1.0702-1.0703-1.0552-2.6664-.2649-3.7201l.0565-.0753.0643-.0686c.064-.0682.139-.1486.2243-.2401.9563-1.0247 3.2094-3.439 5.7077-5.6763 1.3583-1.2164 2.8314-2.4192 4.2425-3.3277C12.1975 1.204 13.7699.4097 15.2541.4097c.749 0 1.3788.1714 1.9092.4631.481.2646.8116.596.9734.7584l.0203.0203.0164.0163.0159.0169c1.7504 1.8476 1.1163 4.1956.3014 5.8957-.3206.6688-.7289 1.3664-1.1845 2.0747.9614-.4544 2.1325-.7295 3.3396-.2467.8937.3575 1.7985 1.1353 2.0771 2.3083.3466 1.1381.1056 2.233-.2272 3.1046a7.8814 7.8814 0 0 1-.069.1744c.2135.1044.4197.2414.6105.4158.5925.4911.8892 1.189.9504 1.8322.0663.6962-.1261 1.5216-.7586 2.1541-.5252.4436-1.4608 1.0645-1.863 1.3195-.6866.4251-1.6436.8733-2.7305.8733-.7086 0-1.3829-.1767-2.0076-.4846-.188-.0946-.6258-.3621-.8733-.6751-.3297-.356-.5746-.7794-.711-1.2642a3.2433 3.2433 0 0 1-.1165-.7211Z" fill="currentColor"/></svg>