<svg width="24" height="22" fill="none" xmlns="http://www.w3.org/2000/svg"><path d="m17.323 21.0207-.0419-.0269c-.5652-.3634-.9472-.8535-1.1148-1.4492-.1606-.5706-.0989-1.1466.0403-1.6599.1404-.5176.384-1.0519.663-1.5697-.1006.0911-.1983.1795-.2925.2643l-.0096.0086-.274.24c-1.2546 1.1-2.6045 2.2836-3.8858 2.989-.6965.3835-1.4538.6737-2.2311.6955-.8159.0229-1.5858-.2529-2.2464-.8746-.6476-.6078-.9447-1.3594-.9447-2.1782 0-.7749.2646-1.5651.633-2.3248.6986-1.441 1.935-3.0885 3.2137-4.7923l.1705-.2272c.1723-.2439.3699-.5186.583-.8148.659-.9161 1.466-2.038 2.1277-3.0884.3051-.4843.5638-.9296.756-1.3127-.2556.1341-.5401.3027-.851.5052-.9383.6108-2.0474 1.4835-3.2267 2.5084-2.3555 2.047-4.917 4.6361-6.8306 6.7749l-.0171.0191-.0181.0181c-.804.8039-2.0048.7958-2.7997.1996l-.0525-.0394-.0464-.0464c-.804-.8039-.7958-2.0047-.1996-2.7997l.0304-.0405.0347-.037c.0694-.074.1505-.1609.2425-.2595 1.0308-1.1044 3.4305-3.6756 6.088-6.0555 1.4463-1.2951 2.9915-2.5544 4.4528-3.4952 1.4196-.914 2.917-1.6334 4.2283-1.6334.6593 0 1.1834.1492 1.6112.3845.4006.2203.6777.4977.8473.6674l.0149.015.0089.0088.0085.009c1.4546 1.5355 1.0136 3.5394.1623 5.3155-.8061 1.6818-2.1658 3.5609-3.5192 5.4311v.0001l-.3201.4426-.0039.0055-.1002.1365-.0001.0001c-.253.3449-.5275.7192-.8064 1.105.1172-.1072.2302-.2105.3379-.3084l.0016-.0015c1.1775-1.0654 2.3774-2.1492 3.5098-2.8685 1.1023-.7 2.4179-1.2352 3.7111-.7179.7645.3058 1.4804.9514 1.6879 1.8695.3003.9554.1123 1.9154-.2153 2.7733-.1451.38-.3273.7642-.5286 1.1467.4639-.0069.9676.1407 1.3678.5149.4339.351.6638.8693.7109 1.3639.0499.5242-.0963 1.1252-.5507 1.5795l-1.0055.7059a12.1787 12.1787 0 0 1-.2868.2143c-.6905.4995-1.7788 1.1709-3.0019 1.1709-.6146 0-1.2103-.1548-1.7783-.4388l-.0445-.0223Z" fill="currentColor"/></svg>