<svg width="25" height="24" fill="none" xmlns="http://www.w3.org/2000/svg"><path fill-rule="evenodd" clip-rule="evenodd" d="m9.9006 3.5935-.1666.9917a60.9814 60.9814 0 0 1 1.7223-.0243c1.2716 0 2.5446.0239 3.8173.0712l-.1747-1.0323c-.0856-.525-.1398-.7134-.2392-.828-.055-.0634-.2468-.237-1.0192-.237h-2.6809c-.7839 0-.9699.1688-1.0194.225-.0943.1069-.1475.2865-.2396.8337Zm-1.5137-.2546-.2201 1.3108a61.4977 61.4977 0 0 0-2.8647.222l-2.0863.2045a.7675.7675 0 0 0 .1498 1.5275l2.0874-.2046.0023-.0002a59.6736 59.6736 0 0 1 6.001-.3031c3.3917 0 6.7943.1726 10.1773.5079a.7674.7674 0 1 0 .1513-1.5274 106.3019 106.3019 0 0 0-4.9432-.3742.6486.6486 0 0 0-.0036-.0236l-.2247-1.328-.0096-.0595c-.0673-.4184-.1681-1.045-.5848-1.5252C15.5368 1.2102 14.7974 1 13.8405 1h-2.6809c-.9454 0-1.6855.1945-2.1706.7446-.4162.472-.5195 1.0962-.59 1.5218l-.012.0725ZM20.275 9.123a.7675.7675 0 0 0-1.5317-.0988l-.6648 10.2999-.0002.0021c-.0289.4122-.0533.739-.1107 1.0239-.0559.2774-.1334.4597-.2336.5901-.1728.2249-.5994.525-1.9495.525H9.2152c-1.3501 0-1.7767-.3001-1.9495-.525-.1002-.1304-.1777-.3127-.2336-.5901-.0574-.2849-.0818-.6117-.1107-1.0239l-.0002-.0021-.6648-10.3a.7674.7674 0 1 0-1.5317.099l.6651 10.3041.0017.0237c.027.385.0566.8083.136 1.2022.0822.4085.2272.8395.521 1.222.615.8009 1.662 1.125 3.1667 1.125h6.5693c1.5047 0 2.5516-.3241 3.1668-1.125.2937-.3825.4387-.8135.521-1.222.0793-.3939.109-.8172.1359-1.2022l.0014-.0195.6654-10.3084Zm-10.2513 7.4817a.7675.7675 0 0 1 .7675-.7674h3.4074a.7674.7674 0 0 1 0 1.5349h-3.4074a.7675.7675 0 0 1-.7675-.7675Zm-.082-4.8604a.7674.7674 0 1 0 0 1.5348h5.1164a.7674.7674 0 1 0 0-1.5348H9.9418Z" fill="#353B45"/></svg>