<svg width="24" height="24" viewBox="0 0 24 24" fill="none" xmlns="http://www.w3.org/2000/svg">
<path d="M15.4538 23.0498L15.4538 23.0498C15.6542 23.0542 15.851 22.9961 16.0169 22.8835C16.1827 22.7709 16.3093 22.6093 16.3791 22.4214C16.4489 22.2335 16.4585 22.0286 16.4064 21.835C16.3545 21.6419 16.2438 21.4698 16.0897 21.3423L5.96347 12.0148L16.0887 2.68986C16.1946 2.61149 16.2834 2.51226 16.3496 2.3982C16.4162 2.28333 16.4583 2.15592 16.4734 2.02401C16.4885 1.8921 16.4762 1.75851 16.4373 1.63158C16.3984 1.50465 16.3336 1.38708 16.2472 1.28631C16.1607 1.18554 16.0544 1.1038 15.9348 1.04605C15.8153 0.988281 15.6851 0.955837 15.5524 0.95072C15.4197 0.9456 15.2874 0.967852 15.1638 1.01624C15.0405 1.06449 14.9284 1.13761 14.8346 1.23104L3.85812 11.2826C3.75235 11.3731 3.66738 11.4852 3.60908 11.6116C3.55065 11.7383 3.5204 11.8761 3.5204 12.0156C3.5204 12.1551 3.55065 12.293 3.60908 12.4196C3.66737 12.546 3.75233 12.6583 3.85812 12.7487L14.8354 22.8063L14.8354 22.8063L14.836 22.8068C15.0067 22.9584 15.2256 23.0444 15.4538 23.0498Z" fill="white" stroke="white" stroke-width="0.1"/>
</svg>
