<svg width="24" height="24" viewBox="0 0 24 24" fill="none" xmlns="http://www.w3.org/2000/svg">
<path d="M23.25 9.375C23.25 10.4105 22.4105 11.25 21.375 11.25L2.625 11.25C1.58947 11.25 0.75 10.4105 0.75 9.375C0.75 8.33946 1.58947 7.5 2.625 7.5L21.375 7.5C22.4105 7.5 23.25 8.33947 23.25 9.375Z" fill="#353B45"/>
<path d="M23.25 3.75C23.25 4.99264 22.2426 6 21 6L3 6C1.75736 6 0.75 4.99264 0.75 3.75C0.75 2.50736 1.75736 1.5 3 1.5L21 1.5C22.2426 1.5 23.25 2.50736 23.25 3.75Z" fill="#353B45"/>
<path d="M23.25 14.25C23.25 15.0784 22.5784 15.75 21.75 15.75L2.25 15.75C1.42157 15.75 0.75 15.0784 0.75 14.25C0.75 13.4216 1.42157 12.75 2.25 12.75L21.75 12.75C22.5784 12.75 23.25 13.4216 23.25 14.25Z" fill="#353B45"/>
<path d="M23.25 18.375C23.25 18.9963 22.7463 19.5 22.125 19.5L1.875 19.5C1.25368 19.5 0.75 18.9963 0.75 18.375C0.75 17.7537 1.25368 17.25 1.875 17.25L22.125 17.25C22.7463 17.25 23.25 17.7537 23.25 18.375Z" fill="#353B45"/>
<path d="M23.25 21.75C23.25 22.1642 22.9142 22.5 22.5 22.5L1.5 22.5C1.08579 22.5 0.75 22.1642 0.75 21.75C0.75 21.3358 1.08579 21 1.5 21L22.5 21C22.9142 21 23.25 21.3358 23.25 21.75Z" fill="#353B45"/>
</svg>
