<svg width="24" height="24" viewBox="0 0 24 24" fill="none" xmlns="http://www.w3.org/2000/svg">
<mask id="path-1-inside-1_2358_3297" fill="white">
<path d="M0.75 14.625C0.75 13.5895 1.58947 12.75 2.625 12.75H21.375C22.4105 12.75 23.25 13.5895 23.25 14.625C23.25 15.6605 22.4105 16.5 21.375 16.5H2.625C1.58947 16.5 0.75 15.6605 0.75 14.625Z"/>
</mask>
<path d="M0.75 14.625C0.75 13.5895 1.58947 12.75 2.625 12.75H21.375C22.4105 12.75 23.25 13.5895 23.25 14.625C23.25 15.6605 22.4105 16.5 21.375 16.5H2.625C1.58947 16.5 0.75 15.6605 0.75 14.625Z" fill="#353B45"/>
<path d="M2.625 20.75H21.375V4.75H2.625V20.75ZM21.375 8.5H2.625V24.5H21.375V8.5ZM2.625 8.5C6.00775 8.5 8.75 11.2423 8.75 14.625H-7.25C-7.25 20.0788 -2.82881 24.5 2.625 24.5V8.5ZM15.25 14.625C15.25 11.2423 17.9923 8.5 21.375 8.5V24.5C26.8288 24.5 31.25 20.0788 31.25 14.625H15.25ZM21.375 20.75C17.9923 20.75 15.25 18.0077 15.25 14.625H31.25C31.25 9.17119 26.8288 4.75 21.375 4.75V20.75ZM2.625 4.75C-2.82881 4.75 -7.25 9.17119 -7.25 14.625H8.75C8.75 18.0077 6.00774 20.75 2.625 20.75V4.75Z" fill="#353B45" mask="url(#path-1-inside-1_2358_3297)"/>
<path d="M0.75 20.25C0.75 19.0074 1.75736 18 3 18H21C22.2426 18 23.25 19.0074 23.25 20.25C23.25 21.4926 22.2426 22.5 21 22.5H3C1.75736 22.5 0.75 21.4926 0.75 20.25Z" fill="#353B45"/>
<path d="M0.75 9.75C0.75 8.92157 1.42157 8.25 2.25 8.25H21.75C22.5784 8.25 23.25 8.92157 23.25 9.75C23.25 10.5784 22.5784 11.25 21.75 11.25H2.25C1.42157 11.25 0.75 10.5784 0.75 9.75Z" fill="#353B45"/>
<path d="M0.75 5.625C0.75 5.00368 1.25368 4.5 1.875 4.5H22.125C22.7463 4.5 23.25 5.00368 23.25 5.625C23.25 6.24632 22.7463 6.75 22.125 6.75H1.875C1.25368 6.75 0.75 6.24632 0.75 5.625Z" fill="#353B45"/>
<path d="M0.75 2.25C0.75 1.83579 1.08579 1.5 1.5 1.5H22.5C22.9142 1.5 23.25 1.83579 23.25 2.25C23.25 2.66421 22.9142 3 22.5 3H1.5C1.08579 3 0.75 2.66421 0.75 2.25Z" fill="#353B45"/>
</svg>
